# xmcd CD database file
#
# Track frame offsets:
#	150
#	30210
#	49810
#	62600
#	75805
#	93735
#	113242
#	125885
#	148272
#	165675
#
# Disc length: 2506 seconds
#
# Revision: 2
# Processed by: cddbd v1.5.1PL0 Copyright (c) Steve Scherf et al.
# Submitted via: CDex 1.51
#
DISCID=8209c80a
DTITLE=Symphonic Slam - Symphonic Slam (Aka Timo Laine)
DYEAR=1976
DGENRE=Progressive Rock
TTITLE0=Universe
TTITLE1=Everytime
TTITLE2=Fold Back
TTITLE3=I Won't Cry
TTITLE4=Let It Grow
TTITLE5=Modane Train
TTITLE6=Times Run Short
TTITLE7=Days(Instrumental)
TTITLE8=Summer Rain
TTITLE9=How Do You Stand (Before The Lord)
EXTD=YEAR: 1976
EXTT0=
EXTT1=
EXTT2=
EXTT3=
EXTT4=
EXTT5=
EXTT6=
EXTT7=
EXTT8=
EXTT9=
PLAYORDER=
